<svg width="366" height="64" viewBox="0 0 366 64" fill="none" xmlns="http://www.w3.org/2000/svg">
<g clip-path="url(#clip0_5_2)">
<rect width="366" height="64" rx="10" fill="#6366F1"/>
<path d="M16.336 55.28C15.28 55.28 14.384 54.912 13.648 54.176C12.944 53.472 12.592 52.576 12.592 51.488V35.984C12.592 34.384 11.728 33.584 10 33.584H5.872V29.936H10C11.728 29.936 12.592 29.136 12.592 27.536V12.032C12.592 10.944 12.944 10.048 13.648 9.344C14.384 8.608 15.28 8.24 16.336 8.24H23.824V11.552H17.584C16.72 11.552 16.288 12.032 16.288 12.992V27.584C16.288 28.736 15.968 29.664 15.328 30.368C14.72 31.072 13.856 31.424 12.736 31.424H12.4V32.096H12.736C13.856 32.096 14.72 32.448 15.328 33.152C15.968 33.856 16.288 34.784 16.288 35.936V50.528C16.288 51.488 16.72 51.968 17.584 51.968H23.824V55.28H16.336ZM341.85 55.28V51.968H348.09C348.954 51.968 349.386 51.488 349.386 50.528V35.936C349.386 34.784 349.69 33.856 350.298 33.152C350.938 32.448 351.818 32.096 352.938 32.096H353.273V31.424H352.938C351.818 31.424 350.938 31.072 350.298 30.368C349.69 29.664 349.386 28.736 349.386 27.584V12.992C349.386 12.032 348.954 11.552 348.09 11.552H341.85V8.24H349.338C350.394 8.24 351.274 8.608 351.978 9.344C352.682 10.048 353.034 10.944 353.034 12.032V27.536C353.034 29.136 353.898 29.936 355.626 29.936H359.802V33.584H355.626C353.898 33.584 353.034 34.384 353.034 35.984V51.488C353.034 52.576 352.682 53.472 351.978 54.176C351.274 54.912 350.394 55.28 349.338 55.28H341.85Z" fill="#EF4444"/>
<path d="M47.8773 44V14.048H37.0773V10.4H62.7093V14.048H51.9093V44H47.8773ZM67.984 44V10.4H71.776V24.272H72.448C72.768 23.568 73.248 22.912 73.888 22.304C74.56 21.664 75.408 21.136 76.432 20.72C77.488 20.304 78.816 20.096 80.416 20.096C82.176 20.096 83.744 20.48 85.12 21.248C86.528 21.984 87.648 23.072 88.48 24.512C89.312 25.92 89.728 27.68 89.728 29.792V44H85.936V30.08C85.936 27.744 85.344 26.048 84.16 24.992C83.008 23.936 81.44 23.408 79.456 23.408C77.184 23.408 75.328 24.144 73.888 25.616C72.48 27.088 71.776 29.28 71.776 32.192V44H67.984ZM108.174 44.672C105.806 44.672 103.726 44.176 101.934 43.184C100.142 42.16 98.7495 40.736 97.7575 38.912C96.7655 37.088 96.2695 34.976 96.2695 32.576V32C96.2695 29.568 96.7655 27.44 97.7575 25.616C98.7495 23.792 100.126 22.384 101.886 21.392C103.646 20.368 105.662 19.856 107.934 19.856C110.142 19.856 112.094 20.336 113.79 21.296C115.486 22.224 116.814 23.568 117.774 25.328C118.734 27.088 119.214 29.152 119.214 31.52V33.248H100.062C100.158 35.776 100.974 37.76 102.51 39.2C104.046 40.608 105.966 41.312 108.27 41.312C110.286 41.312 111.838 40.848 112.926 39.92C114.014 38.992 114.846 37.888 115.422 36.608L118.686 38.192C118.206 39.184 117.534 40.176 116.67 41.168C115.838 42.16 114.734 42.992 113.358 43.664C112.014 44.336 110.286 44.672 108.174 44.672ZM100.11 30.128H115.374C115.246 27.952 114.494 26.256 113.118 25.04C111.774 23.824 110.046 23.216 107.934 23.216C105.79 23.216 104.03 23.824 102.654 25.04C101.278 26.256 100.43 27.952 100.11 30.128ZM150.156 44.672C146.156 44.672 142.972 43.52 140.604 41.216C138.236 38.88 137.052 35.488 137.052 31.04V23.36C137.052 18.912 138.236 15.536 140.604 13.232C142.972 10.896 146.156 9.728 150.156 9.728C154.124 9.728 157.164 10.832 159.276 13.04C161.42 15.248 162.492 18.272 162.492 22.112V22.352H158.508V21.968C158.508 19.44 157.82 17.376 156.444 15.776C155.1 14.144 153.004 13.328 150.156 13.328C147.308 13.328 145.084 14.208 143.484 15.968C141.884 17.696 141.084 20.128 141.084 23.264V31.136C141.084 34.272 141.884 36.72 143.484 38.48C145.084 40.208 147.308 41.072 150.156 41.072C153.004 41.072 155.1 40.272 156.444 38.672C157.82 37.04 158.508 34.96 158.508 32.432V31.664H162.492V32.288C162.492 36.128 161.42 39.152 159.276 41.36C157.164 43.568 154.124 44.672 150.156 44.672ZM176.153 44.672C174.521 44.672 173.033 44.384 171.689 43.808C170.345 43.232 169.289 42.4 168.521 41.312C167.753 40.224 167.369 38.896 167.369 37.328C167.369 35.728 167.753 34.416 168.521 33.392C169.289 32.336 170.345 31.552 171.689 31.04C173.033 30.496 174.537 30.224 176.201 30.224H184.121V28.496C184.121 26.832 183.625 25.52 182.633 24.56C181.673 23.6 180.233 23.12 178.313 23.12C176.425 23.12 174.953 23.584 173.897 24.512C172.841 25.408 172.121 26.624 171.737 28.16L168.185 27.008C168.569 25.696 169.177 24.512 170.009 23.456C170.841 22.368 171.945 21.504 173.321 20.864C174.729 20.192 176.409 19.856 178.361 19.856C181.369 19.856 183.705 20.64 185.369 22.208C187.033 23.744 187.865 25.92 187.865 28.736V39.344C187.865 40.304 188.313 40.784 189.209 40.784H191.369V44H188.057C187.001 44 186.153 43.712 185.513 43.136C184.873 42.528 184.553 41.728 184.553 40.736V40.496H183.977C183.625 41.104 183.145 41.744 182.537 42.416C181.961 43.056 181.161 43.584 180.137 44C179.113 44.448 177.785 44.672 176.153 44.672ZM176.585 41.408C178.825 41.408 180.633 40.752 182.009 39.44C183.417 38.096 184.121 36.224 184.121 33.824V33.296H176.345C174.841 33.296 173.593 33.632 172.601 34.304C171.641 34.944 171.161 35.92 171.161 37.232C171.161 38.544 171.657 39.568 172.649 40.304C173.673 41.04 174.985 41.408 176.585 41.408ZM203.655 44C202.311 44 201.271 43.632 200.535 42.896C199.831 42.16 199.479 41.152 199.479 39.872V23.84H192.423V20.528H199.479V12.176H203.271V20.528H210.951V23.84H203.271V39.296C203.271 40.256 203.735 40.736 204.663 40.736H209.895V44H203.655ZM224.153 44.672C222.521 44.672 221.033 44.384 219.689 43.808C218.345 43.232 217.289 42.4 216.521 41.312C215.753 40.224 215.369 38.896 215.369 37.328C215.369 35.728 215.753 34.416 216.521 33.392C217.289 32.336 218.345 31.552 219.689 31.04C221.033 30.496 222.537 30.224 224.201 30.224H232.121V28.496C232.121 26.832 231.625 25.52 230.633 24.56C229.673 23.6 228.233 23.12 226.313 23.12C224.425 23.12 222.953 23.584 221.897 24.512C220.841 25.408 220.121 26.624 219.737 28.16L216.185 27.008C216.569 25.696 217.177 24.512 218.009 23.456C218.841 22.368 219.945 21.504 221.321 20.864C222.729 20.192 224.409 19.856 226.361 19.856C229.369 19.856 231.705 20.64 233.369 22.208C235.033 23.744 235.865 25.92 235.865 28.736V39.344C235.865 40.304 236.313 40.784 237.209 40.784H239.369V44H236.057C235.001 44 234.153 43.712 233.513 43.136C232.873 42.528 232.553 41.728 232.553 40.736V40.496H231.977C231.625 41.104 231.145 41.744 230.537 42.416C229.961 43.056 229.161 43.584 228.137 44C227.113 44.448 225.785 44.672 224.153 44.672ZM224.585 41.408C226.825 41.408 228.633 40.752 230.009 39.44C231.417 38.096 232.121 36.224 232.121 33.824V33.296H224.345C222.841 33.296 221.593 33.632 220.601 34.304C219.641 34.944 219.161 35.92 219.161 37.232C219.161 38.544 219.657 39.568 220.649 40.304C221.673 41.04 222.985 41.408 224.585 41.408ZM244.562 44V10.4H248.354V44H244.562ZM259.16 53.6V50.24H272.6C273.528 50.24 273.992 49.76 273.992 48.8V40.256H273.32C273 40.928 272.504 41.6 271.832 42.272C271.192 42.912 270.344 43.44 269.288 43.856C268.232 44.24 266.904 44.432 265.304 44.432C263.608 44.432 262.04 44.064 260.6 43.328C259.192 42.592 258.072 41.504 257.24 40.064C256.44 38.624 256.04 36.864 256.04 34.784V20.528H259.832V34.496C259.832 36.8 260.408 38.48 261.56 39.536C262.744 40.592 264.328 41.12 266.312 41.12C268.552 41.12 270.392 40.384 271.832 38.912C273.272 37.44 273.992 35.248 273.992 32.336V20.528H277.784V49.472C277.784 50.752 277.416 51.76 276.68 52.496C275.976 53.232 274.936 53.6 273.56 53.6H259.16ZM295.174 44.672C292.262 44.672 289.798 44 287.782 42.656C285.798 41.312 284.598 39.184 284.182 36.272L287.782 35.456C288.038 36.992 288.518 38.208 289.222 39.104C289.926 39.968 290.79 40.592 291.814 40.976C292.87 41.328 293.99 41.504 295.174 41.504C296.934 41.504 298.326 41.152 299.35 40.448C300.374 39.744 300.886 38.8 300.886 37.616C300.886 36.4 300.39 35.552 299.398 35.072C298.438 34.56 297.11 34.144 295.414 33.824L293.446 33.488C291.942 33.232 290.566 32.832 289.318 32.288C288.07 31.744 287.078 31.008 286.342 30.08C285.606 29.152 285.238 27.984 285.238 26.576C285.238 24.464 286.054 22.816 287.686 21.632C289.318 20.448 291.478 19.856 294.166 19.856C296.822 19.856 298.966 20.464 300.598 21.68C302.262 22.864 303.334 24.544 303.814 26.72L300.262 27.632C299.974 25.936 299.286 24.752 298.198 24.08C297.11 23.376 295.766 23.024 294.166 23.024C292.566 23.024 291.302 23.328 290.374 23.936C289.446 24.512 288.982 25.376 288.982 26.528C288.982 27.648 289.414 28.48 290.278 29.024C291.174 29.536 292.358 29.92 293.83 30.176L295.798 30.512C297.462 30.8 298.95 31.2 300.262 31.712C301.606 32.192 302.662 32.896 303.43 33.824C304.23 34.752 304.63 35.968 304.63 37.472C304.63 39.776 303.766 41.552 302.038 42.8C300.342 44.048 298.054 44.672 295.174 44.672ZM319.155 44C317.811 44 316.771 43.632 316.035 42.896C315.331 42.16 314.979 41.152 314.979 39.872V23.84H307.923V20.528H314.979V12.176H318.771V20.528H326.451V23.84H318.771V39.296C318.771 40.256 319.235 40.736 320.163 40.736H325.395V44H319.155Z" fill="#FDFEFF"/>
</g>
<defs>
<clipPath id="clip0_5_2">
<rect width="366" height="64" rx="10" fill="white"/>
</clipPath>
</defs>
</svg>
